<svg width="40" height="40" viewBox="0 0 40 40" fill="none" xmlns="http://www.w3.org/2000/svg">
    <path style="vector-effect: non-scaling-stroke;" id="svg_5"
          d="m9.42653,15.45335c2.47095,4.74457 2.95334,6.18542 2.13636,6.3811c-1.59592,0.38224 -1.27522,2.56836 0.95854,6.534c2.80138,4.97335 8.28842,8.02745 13.44245,7.48208c2.00049,-0.21168 4.26214,-0.64854 5.02588,-0.97081c0.76374,-0.32228 0.29508,0.27809 -1.04147,1.33413c-6.68617,5.28292 -14.94388,4.91492 -21.53175,-0.95954c-2.6267,-2.34226 -6.24064,-9.18571 -6.24064,-11.81745c0,-0.74556 -0.59581,-1.46797 -1.32403,-1.60536c-1.19091,-0.22468 -1.03098,-0.81627 1.59076,-5.88418c1.60314,-3.09891 3.11222,-5.85667 3.35353,-6.12836c0.24131,-0.27168 1.87497,2.26379 3.63036,5.63439l0,0zm21.23994,9.14694c-2.47095,-4.74456 -2.95334,-6.18543 -2.13636,-6.3811c1.59592,-0.38224 1.27522,-2.56835 -0.95854,-6.534c-2.80138,-4.97335 -8.28843,-8.02745 -13.44245,-7.48208c-2.00049,0.21168 -4.26214,0.64855 -5.02588,0.97082c-0.76374,0.32227 -0.29508,-0.27809 1.04146,-1.33413c6.68617,-5.28292 14.94388,-4.91492 21.53175,0.95954c2.62671,2.34226 6.24064,9.1857 6.24064,11.81744c0,0.74556 0.59582,1.46797 1.32403,1.60536c1.19092,0.22468 1.03098,0.81627 -1.59075,5.88418c-1.60313,3.09891 -3.11223,5.85667 -3.35353,6.12836c-0.24131,0.27168 -1.87497,-2.26379 -3.63036,-5.63438l0,0z"
          fill="url(#paint0_linear)"
    />

    <defs>
        <linearGradient id="paint0_linear" x1="2.94192" y1="4.89955" x2="37.7772" y2="39.7345"
                        gradientUnits="userSpaceOnUse">
            <stop offset="0.15937" stop-color="#3BEA62"/>
            <stop offset="0.5404" stop-color="#3C99CC"/>
            <stop offset="0.93739" stop-color="#6B57FF"/>
        </linearGradient>
    </defs>
</svg>
